<?xml version="1.0" encoding="UTF-8"?>
<!DOCTYPE svg PUBLIC "-//W3C//DTD SVG 1.1//EN" "http://www.w3.org/Graphics/SVG/1.1/DTD/svg11.dtd">
<svg version="1.2" width="308.12mm" height="207.8mm" viewBox="0 0 30812 20780" preserveAspectRatio="xMidYMid" fill-rule="evenodd" stroke-width="28.222" stroke-linejoin="round" xmlns="http://www.w3.org/2000/svg" xmlns:ooo="http://xml.openoffice.org/svg/export" xmlns:xlink="http://www.w3.org/1999/xlink" xmlns:presentation="http://sun.com/xmlns/staroffice/presentation" xmlns:smil="http://www.w3.org/2001/SMIL20/" xmlns:anim="urn:oasis:names:tc:opendocument:xmlns:animation:1.0" xml:space="preserve">
 <defs class="ClipPathGroup">
  <clipPath id="presentation_clip_path" clipPathUnits="userSpaceOnUse">
   <rect x="0" y="0" width="30812" height="20780"/>
  </clipPath>
  <clipPath id="presentation_clip_path_shrink" clipPathUnits="userSpaceOnUse">
   <rect x="30" y="20" width="30751" height="20739"/>
  </clipPath>
 </defs>
 <defs class="TextShapeIndex">
  <g ooo:slide="id1" ooo:id-list="id3 id4 id5 id6 id7 id8 id9 id10 id11 id12 id13 id14 id15 id16 id17 id18 id19 id20 id21 id22 id23 id24 id25 id26 id27 id28 id29 id30 id31 id32 id33 id34 id35 id36 id37 id38 id39 id40 id41 id42 id43 id44 id45 id46 id47 id48 id49 id50 id51 id52 id53 id54 id55 id56 id57 id58 id59 id60 id61 id62 id63 id64 id65 id66 id67 id68 id69 id70 id71 id72 id73 id74 id75 id76 id77 id78 id79"/>
 </defs>
 <defs class="EmbeddedBulletChars">
  <g id="bullet-char-template-57356" transform="scale(0.00048828125,-0.00048828125)">
   <path d="M 580,1141 L 1163,571 580,0 -4,571 580,1141 Z"/>
  </g>
  <g id="bullet-char-template-57354" transform="scale(0.00048828125,-0.00048828125)">
   <path d="M 8,1128 L 1137,1128 1137,0 8,0 8,1128 Z"/>
  </g>
  <g id="bullet-char-template-10146" transform="scale(0.00048828125,-0.00048828125)">
   <path d="M 174,0 L 602,739 174,1481 1456,739 174,0 Z M 1358,739 L 309,1346 659,739 1358,739 Z"/>
  </g>
  <g id="bullet-char-template-10132" transform="scale(0.00048828125,-0.00048828125)">
   <path d="M 2015,739 L 1276,0 717,0 1260,543 174,543 174,936 1260,936 717,1481 1274,1481 2015,739 Z"/>
  </g>
  <g id="bullet-char-template-10007" transform="scale(0.00048828125,-0.00048828125)">
   <path d="M 0,-2 C -7,14 -16,27 -25,37 L 356,567 C 262,823 215,952 215,954 215,979 228,992 255,992 264,992 276,990 289,987 310,991 331,999 354,1012 L 381,999 492,748 772,1049 836,1024 860,1049 C 881,1039 901,1025 922,1006 886,937 835,863 770,784 769,783 710,716 594,584 L 774,223 C 774,196 753,168 711,139 L 727,119 C 717,90 699,76 672,76 641,76 570,178 457,381 L 164,-76 C 142,-110 111,-127 72,-127 30,-127 9,-110 8,-76 1,-67 -2,-52 -2,-32 -2,-23 -1,-13 0,-2 Z"/>
  </g>
  <g id="bullet-char-template-10004" transform="scale(0.00048828125,-0.00048828125)">
   <path d="M 285,-33 C 182,-33 111,30 74,156 52,228 41,333 41,471 41,549 55,616 82,672 116,743 169,778 240,778 293,778 328,747 346,684 L 369,508 C 377,444 397,411 428,410 L 1163,1116 C 1174,1127 1196,1133 1229,1133 1271,1133 1292,1118 1292,1087 L 1292,965 C 1292,929 1282,901 1262,881 L 442,47 C 390,-6 338,-33 285,-33 Z"/>
  </g>
  <g id="bullet-char-template-9679" transform="scale(0.00048828125,-0.00048828125)">
   <path d="M 813,0 C 632,0 489,54 383,161 276,268 223,411 223,592 223,773 276,916 383,1023 489,1130 632,1184 813,1184 992,1184 1136,1130 1245,1023 1353,916 1407,772 1407,592 1407,412 1353,268 1245,161 1136,54 992,0 813,0 Z"/>
  </g>
  <g id="bullet-char-template-8226" transform="scale(0.00048828125,-0.00048828125)">
   <path d="M 346,457 C 273,457 209,483 155,535 101,586 74,649 74,723 74,796 101,859 155,911 209,963 273,989 346,989 419,989 480,963 531,910 582,859 608,796 608,723 608,648 583,586 532,535 482,483 420,457 346,457 Z"/>
  </g>
  <g id="bullet-char-template-8211" transform="scale(0.00048828125,-0.00048828125)">
   <path d="M -4,459 L 1135,459 1135,606 -4,606 -4,459 Z"/>
  </g>
  <g id="bullet-char-template-61548" transform="scale(0.00048828125,-0.00048828125)">
   <path d="M 173,740 C 173,903 231,1043 346,1159 462,1274 601,1332 765,1332 928,1332 1067,1274 1183,1159 1299,1043 1357,903 1357,740 1357,577 1299,437 1183,322 1067,206 928,148 765,148 601,148 462,206 346,322 231,437 173,577 173,740 Z"/>
  </g>
 </defs>
 <g>
  <g id="id2" class="Master_Slide">
   <g id="bg-id2" class="Background"/>
   <g id="bo-id2" class="BackgroundObjects"/>
  </g>
 </g>
 <g class="SlideGroup">
  <g>
   <g id="container-id1">
    <g id="id1" class="Slide" clip-path="url(#presentation_clip_path)">
     <g class="Page">
      <g class="com.sun.star.drawing.ClosedBezierShape">
       <g id="id3">
        <rect class="BoundingBox" stroke="none" fill="none" x="219" y="2232" width="21175" height="17371"/>
        <path fill="rgb(255,0,0)" stroke="none" d="M 21378,3340 L 21393,3325 21378,3340 Z M 21288,2622 C 21284,2499 21293,2376 21304,2262 L 21304,2232 219,19602 4038,19602 21378,3340 C 21318,3116 21284,2874 21288,2622 Z"/>
       </g>
      </g>
      <g class="com.sun.star.drawing.ClosedBezierShape">
       <g id="id4">
        <rect class="BoundingBox" stroke="none" fill="none" x="5280" y="3775" width="16833" height="15828"/>
        <path fill="rgb(255,128,0)" stroke="none" d="M 22112,4598 C 21876,4358 21677,4080 21528,3775 L 5281,19602 9878,19602 22097,4613 22112,4598 Z"/>
       </g>
      </g>
      <g class="com.sun.star.drawing.ClosedBezierShape">
       <g id="id5">
        <rect class="BoundingBox" stroke="none" fill="none" x="10328" y="4808" width="12955" height="14795"/>
        <path fill="rgb(255,255,0)" stroke="none" d="M 22383,4823 L 22383,4808 10328,19602 15494,19602 23281,5287 23281,5257 C 22956,5171 22654,5020 22383,4823 Z"/>
       </g>
      </g>
      <g class="com.sun.star.drawing.ClosedBezierShape">
       <g id="id6">
        <rect class="BoundingBox" stroke="none" fill="none" x="15838" y="5317" width="8641" height="14286"/>
        <path fill="rgb(21,132,102)" stroke="none" d="M 24463,5332 C 24316,5353 24171,5364 24029,5362 23903,5364 23785,5357 23670,5347 L 23640,5347 15838,19602 20435,19602 24478,5317 24463,5332 Z"/>
       </g>
      </g>
      <g class="com.sun.star.drawing.ClosedBezierShape">
       <g id="id7">
        <rect class="BoundingBox" stroke="none" fill="none" x="20884" y="4898" width="4838" height="14705"/>
        <path fill="rgb(42,96,153)" stroke="none" d="M 25572,4898 C 25347,5060 25142,5144 24868,5227 L 20884,19602 25721,19602 25572,4898 Z"/>
       </g>
      </g>
      <g class="com.sun.star.drawing.ClosedBezierShape">
       <g id="id8">
        <rect class="BoundingBox" stroke="none" fill="none" x="25886" y="3550" width="4779" height="16053"/>
        <path fill="rgb(128,0,128)" stroke="none" d="M 26605,3550 C 26453,3971 26203,4342 25886,4643 L 25901,4718 26275,19602 30663,19602 26620,3580 26605,3550 Z"/>
       </g>
      </g>
      <g class="com.sun.star.drawing.ClosedBezierShape">
       <g id="id9">
        <rect class="BoundingBox" stroke="none" fill="none" x="21609" y="214" width="4865" height="4865"/>
        <path fill="none" stroke="rgb(0,0,0)" stroke-width="101" stroke-linejoin="miter" d="M 24041,5027 C 25361,5030 26427,3964 26422,2646 26427,1332 25361,266 24041,265 22729,266 21662,1332 21660,2646 21662,3964 22729,5030 24041,5027 Z"/>
       </g>
      </g>
      <g class="com.sun.star.drawing.ClosedBezierShape">
       <g id="id10">
        <rect class="BoundingBox" stroke="none" fill="none" x="10118" y="7181" width="8297" height="6687"/>
        <path fill="rgb(240,226,197)" stroke="none" d="M 18414,12880 C 18414,12880 15661,7994 14970,7534 14274,7087 13900,7194 13817,7189 13740,7194 12860,7754 12784,7803 12700,7861 12433,8367 12409,8582 12380,8794 10192,13728 10118,13867 L 11181,13867 11451,13837 C 11580,13621 12566,12422 12679,12131 12780,11835 13687,11195 13787,11113 13900,11035 14140,10341 14161,10184 14167,10528 15074,13222 15075,13493 L 15734,13597 C 15874,13515 16500,13650 17311,13404 18123,13157 18414,12880 18414,12880 Z"/>
       </g>
      </g>
      <g class="com.sun.star.drawing.ClosedBezierShape">
       <g id="id11">
        <rect class="BoundingBox" stroke="none" fill="none" x="10058" y="7145" width="8402" height="6759"/>
        <path fill="none" stroke="rgb(0,0,0)" stroke-width="71" stroke-linejoin="miter" d="M 18414,12880 C 18414,12880 15661,7994 14970,7534 14274,7087 13900,7194 13817,7189 13740,7194 12860,7754 12784,7803 12700,7861 12433,8367 12409,8582 12380,8794 10192,13728 10118,13867 L 11181,13867 11451,13837 C 11580,13621 12566,12422 12679,12131 12780,11835 13687,11195 13787,11113 13900,11035 14140,10341 14161,10184 14167,10528 15074,13222 15075,13493 L 15734,13597 C 15874,13515 16500,13650 17311,13404 18123,13157 18414,12880 18414,12880 Z"/>
       </g>
      </g>
      <g class="com.sun.star.drawing.ClosedBezierShape">
       <g id="id12">
        <rect class="BoundingBox" stroke="none" fill="none" x="18374" y="7204" width="9833" height="9063"/>
        <path fill="rgb(240,226,197)" stroke="none" d="M 18374,12880 L 19207,12745 20061,12340 20809,12370 22007,11307 24942,10933 25287,10289 24793,9825 24808,9645 25077,9405 25092,9256 25182,9166 25242,9166 25242,9091 25257,9016 25587,8821 25377,8657 25422,8507 C 25422,8507 25983,8247 26096,8132 26223,8007 26743,7260 26769,7204 27103,7421 27637,7767 27728,7968 27823,8167 27743,8754 27683,9001 27943,8994 28037,8954 28132,9166 28223,9381 28243,9421 28117,9555 27977,9688 27663,9941 27623,9974 27583,10021 27159,9974 27159,9974 L 27339,10738 C 27327,10756 26930,11198 26830,11307 26743,11406 26527,11650 26410,11861 25868,12836 24090,14825 23640,15335 23395,15596 22248,16236 21633,16264 21262,16279 18788,16189 18788,16189 L 18748,16189 C 18741,15916 18374,12880 18374,12880 Z"/>
       </g>
      </g>
      <g class="com.sun.star.drawing.ClosedBezierShape">
       <g id="id13">
        <rect class="BoundingBox" stroke="none" fill="none" x="18338" y="7168" width="9905" height="9135"/>
        <path fill="none" stroke="rgb(0,0,0)" stroke-width="71" stroke-linejoin="round" stroke-linecap="round" d="M 18748,16189 C 18741,15916 18374,12880 18374,12880 L 19207,12745 20061,12340 20809,12370 22007,11307 24942,10933 25287,10289 24793,9825 24808,9645 25077,9405 25092,9256 25182,9166 25242,9166 25242,9091 25257,9016 25587,8821 25377,8657 25422,8507 C 25422,8507 25983,8247 26096,8132 26223,8007 26743,7260 26769,7204 27103,7421 27637,7767 27728,7968 27823,8167 27743,8754 27683,9001 27943,8994 28037,8954 28132,9166 28223,9381 28243,9421 28117,9555 27977,9688 27663,9941 27623,9974 27583,10021 27159,9974 27159,9974 L 27339,10738 C 27327,10756 26930,11198 26830,11307 26743,11406 26527,11650 26410,11861 25868,12836 24090,14825 23640,15335 23395,15596 22248,16236 21633,16264 21262,16279 18788,16189 18788,16189 L 18748,16189 Z"/>
       </g>
      </g>
      <g class="com.sun.star.drawing.ClosedBezierShape">
       <g id="id14">
        <rect class="BoundingBox" stroke="none" fill="none" x="25104" y="9242" width="225" height="182"/>
        <path fill="rgb(64,64,64)" stroke="none" d="M 25328,9422 L 25104,9392 25119,9242 C 25142,9308 25176,9348 25328,9422 Z"/>
       </g>
      </g>
      <g class="com.sun.star.drawing.ClosedBezierShape">
       <g id="id15">
        <rect class="BoundingBox" stroke="none" fill="none" x="25823" y="7705" width="1786" height="1447"/>
        <path fill="rgb(0,0,0)" stroke="none" d="M 27608,9046 L 26321,7706 C 26024,7883 25849,8261 25826,8372 25796,8474 26020,8518 26182,8518 26361,8518 26583,8327 26635,8267 L 27443,9151 27608,9046 Z"/>
       </g>
      </g>
      <g class="com.sun.star.drawing.PolyLineShape">
       <g id="id16">
        <rect class="BoundingBox" stroke="none" fill="none" x="25336" y="9098" width="2134" height="814"/>
        <path fill="none" stroke="rgb(0,0,0)" stroke-width="51" stroke-linejoin="round" stroke-linecap="round" d="M 27443,9124 L 26380,9241 25976,9750 25362,9885"/>
       </g>
      </g>
      <g class="com.sun.star.drawing.PolyPolygonShape">
       <g id="id17">
        <rect class="BoundingBox" stroke="none" fill="none" x="25216" y="9056" width="328" height="320"/>
        <path fill="rgb(166,166,166)" stroke="none" d="M 25542,9375 L 25268,9192 25216,9078 25297,9056 25542,9375 Z"/>
       </g>
      </g>
      <g class="com.sun.star.drawing.PolyPolygonShape">
       <g id="id18">
        <rect class="BoundingBox" stroke="none" fill="none" x="25916" y="8821" width="300" height="376"/>
        <path fill="rgb(166,166,166)" stroke="none" d="M 26081,8821 L 26215,8971 25916,9196 26081,8821 Z"/>
       </g>
      </g>
      <g class="com.sun.star.drawing.ClosedBezierShape">
       <g id="id19">
        <rect class="BoundingBox" stroke="none" fill="none" x="26650" y="6051" width="2741" height="4688"/>
        <path fill="rgb(174,149,100)" stroke="none" d="M 27818,10469 L 27339,10738 27159,9974 C 27159,9974 27583,10021 27623,9974 27663,9941 27977,9688 28117,9555 28243,9421 28223,9381 28132,9166 28037,8954 27943,8994 27683,9001 27743,8754 27823,8167 27728,7968 27637,7767 27103,7420 26769,7204 26770,7020 26863,6433 26650,6201 L 27099,6051 C 27356,6233 29237,7834 29390,8627 L 27818,10469 Z"/>
       </g>
      </g>
      <g class="com.sun.star.drawing.ClosedBezierShape">
       <g id="id20">
        <rect class="BoundingBox" stroke="none" fill="none" x="26586" y="6011" width="2844" height="4783"/>
        <path fill="none" stroke="rgb(0,0,0)" stroke-width="71" stroke-linejoin="miter" d="M 27818,10469 L 27339,10738 27159,9974 C 27159,9974 27583,10021 27623,9974 27663,9941 27977,9688 28117,9555 28243,9421 28223,9381 28132,9166 28037,8954 27943,8994 27683,9001 27743,8754 27823,8167 27728,7968 27637,7767 27103,7420 26769,7204 26770,7020 26863,6433 26650,6201 L 27099,6051 C 27356,6233 29237,7834 29390,8627 L 27818,10469 Z"/>
       </g>
      </g>
      <g class="com.sun.star.drawing.ClosedBezierShape">
       <g id="id21">
        <rect class="BoundingBox" stroke="none" fill="none" x="27217" y="9974" width="707" height="601"/>
        <path fill="rgb(148,123,75)" stroke="none" d="M 27217,10016 C 27413,10026 27610,10061 27668,9974 L 27923,10289 27788,10469 27563,10573 27217,10016 Z"/>
       </g>
      </g>
      <g class="com.sun.star.drawing.PolyPolygonShape">
       <g id="id22">
        <rect class="BoundingBox" stroke="none" fill="none" x="27919" y="9658" width="334" height="423"/>
        <path fill="rgb(148,123,75)" stroke="none" d="M 27919,9778 L 28054,9658 28252,9915 28102,10079 27919,9778 Z"/>
       </g>
      </g>
      <g class="com.sun.star.drawing.ClosedBezierShape">
       <g id="id23">
        <rect class="BoundingBox" stroke="none" fill="none" x="27756" y="8512" width="752" height="1269"/>
        <path fill="rgb(148,123,75)" stroke="none" d="M 27799,8512 C 27963,8634 28503,9528 28507,9615 L 28357,9780 C 28330,9608 28290,9568 28245,9480 28263,9381 28190,9021 27966,8961 L 27756,8821 27799,8512 Z"/>
       </g>
      </g>
      <g class="com.sun.star.drawing.ClosedBezierShape">
       <g id="id24">
        <rect class="BoundingBox" stroke="none" fill="none" x="27783" y="8009" width="949" height="1502"/>
        <path fill="rgb(148,123,75)" stroke="none" d="M 27784,8009 C 27784,8009 28557,8861 28731,9360 L 28596,9510 C 28610,9354 27963,8448 27803,8297 L 27784,8009 Z"/>
       </g>
      </g>
      <g class="com.sun.star.drawing.ClosedBezierShape">
       <g id="id25">
        <rect class="BoundingBox" stroke="none" fill="none" x="28551" y="7881" width="641" height="1286"/>
        <path fill="rgb(148,123,75)" stroke="none" d="M 28671,9166 C 28704,9114 29197,8341 29190,8228 L 28937,7881 C 28917,7941 28650,8834 28551,8956 L 28671,9166 Z"/>
       </g>
      </g>
      <g class="com.sun.star.drawing.ClosedBezierShape">
       <g id="id26">
        <rect class="BoundingBox" stroke="none" fill="none" x="28281" y="7324" width="464" height="1438"/>
        <path fill="rgb(148,123,75)" stroke="none" d="M 28447,8761 C 28490,8688 28757,7927 28743,7653 L 28443,7324 C 28423,7567 28370,8407 28282,8537 L 28447,8761 Z"/>
       </g>
      </g>
      <g class="com.sun.star.drawing.ClosedBezierShape">
       <g id="id27">
        <rect class="BoundingBox" stroke="none" fill="none" x="27354" y="6307" width="756" height="2036"/>
        <path fill="rgb(148,123,75)" stroke="none" d="M 28102,8342 C 28130,8247 28068,7096 27876,6765 27763,6653 27354,6307 27354,6307 27396,6447 28023,7421 27878,8058 L 28102,8342 Z"/>
       </g>
      </g>
      <g class="com.sun.star.drawing.ClosedBezierShape">
       <g id="id28">
        <rect class="BoundingBox" stroke="none" fill="none" x="26710" y="6094" width="927" height="1678"/>
        <path fill="rgb(148,123,75)" stroke="none" d="M 27635,7771 C 27636,7554 27143,6260 27080,6094 L 26711,6214 C 26956,6594 27383,7300 27380,7547 27383,7594 27635,7771 27635,7771 Z"/>
       </g>
      </g>
      <g class="com.sun.star.drawing.ClosedBezierShape">
       <g id="id29">
        <rect class="BoundingBox" stroke="none" fill="none" x="26814" y="6560" width="226" height="750"/>
        <path fill="rgb(148,123,75)" stroke="none" d="M 27039,7309 C 27036,7140 26890,6660 26829,6560 26850,6647 26836,7100 26814,7174 L 27039,7309 Z"/>
       </g>
      </g>
      <g class="com.sun.star.drawing.PolyLineShape">
       <g id="id30">
        <rect class="BoundingBox" stroke="none" fill="none" x="25271" y="9697" width="1916" height="996"/>
        <path fill="none" stroke="rgb(0,0,0)" stroke-width="71" stroke-linejoin="miter" d="M 25287,10289 L 26036,10648 26859,9750 26994,9900 27172,9973"/>
       </g>
      </g>
      <g class="com.sun.star.drawing.PolyPolygonShape">
       <g id="id31">
        <rect class="BoundingBox" stroke="none" fill="none" x="26041" y="9773" width="914" height="926"/>
        <path fill="rgb(185,171,140)" stroke="none" d="M 26954,9909 L 26861,9773 26041,10698 26954,9909 Z"/>
       </g>
      </g>
      <g class="com.sun.star.drawing.PolyPolygonShape">
       <g id="id32">
        <rect class="BoundingBox" stroke="none" fill="none" x="24987" y="10334" width="1050" height="570"/>
        <path fill="rgb(185,171,140)" stroke="none" d="M 25302,10334 L 24987,10903 26036,10693 25302,10334 Z"/>
       </g>
      </g>
      <g class="com.sun.star.drawing.PolyPolygonShape">
       <g id="id33">
        <rect class="BoundingBox" stroke="none" fill="none" x="20465" y="10079" width="1334" height="1409"/>
        <path fill="rgb(240,226,197)" stroke="none" d="M 21798,10079 L 20555,10588 20465,10753 20525,10873 20749,10843 21693,10514 20839,10933 20689,11068 20749,11202 20929,11202 21708,10843 21214,11322 21169,11427 21229,11487 21363,11442 21798,11113 21798,10079 Z"/>
       </g>
      </g>
      <g class="com.sun.star.drawing.PolyPolygonShape">
       <g id="id34">
        <rect class="BoundingBox" stroke="none" fill="none" x="20424" y="10026" width="1460" height="1503"/>
        <path fill="none" stroke="rgb(0,0,0)" stroke-width="71" stroke-linejoin="miter" d="M 21798,10079 L 20555,10588 20465,10753 20525,10873 20749,10843 21693,10514 20839,10933 20689,11068 20749,11202 20929,11202 21708,10843 21214,11322 21169,11427 21229,11487 21363,11442 21798,11113 21798,10079 Z"/>
       </g>
      </g>
      <g class="com.sun.star.drawing.PolyPolygonShape">
       <g id="id35">
        <rect class="BoundingBox" stroke="none" fill="none" x="21798" y="9166" width="1094" height="2397"/>
        <path fill="rgb(196,122,43)" stroke="none" d="M 22891,11442 L 22891,9166 21798,9166 21798,11562 22891,11442 Z"/>
       </g>
      </g>
      <g class="com.sun.star.drawing.PolyPolygonShape">
       <g id="id36">
        <rect class="BoundingBox" stroke="none" fill="none" x="22104" y="8178" width="963" height="462"/>
        <path fill="rgb(64,64,64)" stroke="none" d="M 22104,8344 L 22742,8178 23065,8639 22104,8344 Z"/>
       </g>
      </g>
      <g class="com.sun.star.drawing.PolyPolygonShape">
       <g id="id37">
        <rect class="BoundingBox" stroke="none" fill="none" x="22007" y="8148" width="1125" height="540"/>
        <path fill="rgb(0,0,0)" stroke="none" d="M 22999,8591 L 22201,8346 22730,8209 22999,8591 Z M 22753,8148 L 22007,8342 23131,8687 22753,8148 Z"/>
       </g>
      </g>
      <g class="com.sun.star.drawing.LineShape">
       <g id="id38">
        <rect class="BoundingBox" stroke="none" fill="none" x="22337" y="8508" width="316" height="819"/>
        <path fill="none" stroke="rgb(0,0,0)" stroke-width="79" stroke-linejoin="miter" d="M 22375,9314 L 22614,8520"/>
       </g>
      </g>
      <g class="com.sun.star.drawing.ClosedBezierShape">
       <g id="id39">
        <rect class="BoundingBox" stroke="none" fill="none" x="915" y="13463" width="17132" height="4432"/>
        <path fill="rgb(240,226,197)" stroke="none" d="M 1133,15409 C 872,15083 1096,14743 1073,14601 1034,14390 1027,14490 1028,14406 866,14319 928,14101 923,13972 L 923,13957 C 1074,13426 1399,13900 1372,14092 1513,14285 1597,14691 1597,14691 1646,14837 2430,15302 2930,15709 3218,15924 3522,15846 4007,15814 4697,15755 8994,14346 8994,14346 L 10117,13867 11180,13867 14834,13463 17432,13837 18046,15275 17451,16203 C 17451,16203 11072,16075 10536,15919 10064,16186 8096,16533 7077,16682 6190,16822 4683,17022 4307,17042 3936,17076 3644,17196 3424,17431 3221,17643 2900,17995 2556,17865 2163,17716 2190,17276 2076,16712 2004,16296 1430,15769 1133,15409 Z"/>
       </g>
      </g>
      <g class="com.sun.star.drawing.ClosedBezierShape">
       <g id="id40">
        <rect class="BoundingBox" stroke="none" fill="none" x="889" y="13437" width="17187" height="4483"/>
        <path fill="none" stroke="rgb(0,0,0)" stroke-width="51" stroke-linejoin="miter" d="M 1133,15409 C 872,15083 1096,14743 1073,14601 1034,14390 1027,14490 1028,14406 866,14319 928,14101 923,13972 L 923,13957 C 1074,13426 1399,13900 1372,14092 1513,14285 1597,14691 1597,14691 1646,14837 2430,15302 2930,15709 3218,15924 3522,15846 4007,15814 4697,15755 8994,14346 8994,14346 L 10117,13867 11180,13867 14834,13463 17432,13837 18046,15275 17451,16203 C 17451,16203 11072,16075 10536,15919 10064,16186 8096,16533 7077,16682 6190,16822 4683,17022 4307,17042 3936,17076 3644,17196 3424,17431 3221,17643 2900,17995 2556,17865 2163,17716 2190,17276 2076,16712 2004,16296 1430,15769 1133,15409 Z"/>
       </g>
      </g>
      <g class="com.sun.star.drawing.PolyPolygonShape">
       <g id="id41">
        <rect class="BoundingBox" stroke="none" fill="none" x="9714" y="14451" width="645" height="211"/>
        <path fill="rgb(166,166,166)" stroke="none" d="M 9714,14451 L 10193,14661 10358,14481 9714,14451 Z"/>
       </g>
      </g>
      <g class="com.sun.star.drawing.PolyPolygonShape">
       <g id="id42">
        <rect class="BoundingBox" stroke="none" fill="none" x="13052" y="7593" width="736" height="556"/>
        <path fill="rgb(166,166,166)" stroke="none" d="M 13053,8147 L 13787,7593 13667,8028 13053,8147 Z"/>
       </g>
      </g>
      <g class="com.sun.star.drawing.PolyPolygonShape">
       <g id="id43">
        <rect class="BoundingBox" stroke="none" fill="none" x="2345" y="8043" width="27990" height="10707"/>
        <path fill="rgb(0,0,0)" stroke="none" d="M 2346,18001 L 9160,16159 22801,16264 29795,8043 30334,8477 23295,16848 9264,16908 2675,18749 2346,18001 Z"/>
       </g>
      </g>
      <g class="com.sun.star.drawing.PolyPolygonShape">
       <g id="id44">
        <rect class="BoundingBox" stroke="none" fill="none" x="8620" y="16922" width="4928" height="3715"/>
        <path fill="rgb(0,0,0)" stroke="none" d="M 13547,20636 L 9204,16922 8620,17087 12754,20636 13547,20636 Z"/>
       </g>
      </g>
      <g class="com.sun.star.drawing.PolyPolygonShape">
       <g id="id45">
        <rect class="BoundingBox" stroke="none" fill="none" x="22397" y="16862" width="5047" height="3415"/>
        <path fill="rgb(0,0,0)" stroke="none" d="M 27443,20261 L 23160,16862 22397,16862 26829,20276 27443,20261 Z"/>
       </g>
      </g>
      <g class="com.sun.star.drawing.PolyPolygonShape">
       <g id="id46">
        <rect class="BoundingBox" stroke="none" fill="none" x="9204" y="16877" width="4284" height="3835"/>
        <path fill="rgb(0,0,0)" stroke="none" d="M 9819,20711 L 13487,16877 12828,16877 9204,20711 9819,20711 Z"/>
       </g>
      </g>
      <g class="com.sun.star.drawing.PolyPolygonShape">
       <g id="id47">
        <rect class="BoundingBox" stroke="none" fill="none" x="22516" y="11935" width="4913" height="8702"/>
        <path fill="rgb(0,0,0)" stroke="none" d="M 23175,20636 L 27428,11935 25931,13702 22516,20636 23175,20636 Z"/>
       </g>
      </g>
      <g class="com.sun.star.drawing.PolyPolygonShape">
       <g id="id48">
        <rect class="BoundingBox" stroke="none" fill="none" x="9519" y="16907" width="3969" height="2801"/>
        <path fill="rgb(0,0,0)" stroke="none" d="M 13487,19707 L 10268,16907 9519,16907 12814,19707 13487,19707 Z"/>
       </g>
      </g>
      <g class="com.sun.star.drawing.PolyPolygonShape">
       <g id="id49">
        <rect class="BoundingBox" stroke="none" fill="none" x="10822" y="16877" width="3475" height="2966"/>
        <path fill="rgb(0,0,0)" stroke="none" d="M 11466,19842 L 14296,16877 13667,16877 10822,19842 11466,19842 Z"/>
       </g>
      </g>
      <g class="com.sun.star.drawing.PolyPolygonShape">
       <g id="id50">
        <rect class="BoundingBox" stroke="none" fill="none" x="23730" y="9985" width="5328" height="9949"/>
        <path fill="rgb(0,0,0)" stroke="none" d="M 24358,19918 L 29057,9986 27878,11382 23730,19933 24358,19918 Z"/>
       </g>
      </g>
      <g class="com.sun.star.drawing.PolyPolygonShape">
       <g id="id51">
        <rect class="BoundingBox" stroke="none" fill="none" x="21453" y="16862" width="5048" height="3415"/>
        <path fill="rgb(0,0,0)" stroke="none" d="M 26500,20261 L 22232,16862 21453,16862 25811,20276 26500,20261 Z"/>
       </g>
      </g>
      <g class="com.sun.star.drawing.ClosedBezierShape">
       <g id="id52">
        <rect class="BoundingBox" stroke="none" fill="none" x="10807" y="8715" width="5572" height="5154"/>
        <path fill="rgb(208,195,167)" stroke="none" d="M 15075,13494 C 15074,13222 14167,10528 14161,10184 14140,10341 13900,11035 13787,11113 13687,11195 12780,11835 12679,12131 12567,12422 11580,13622 11451,13838 L 10807,13868 C 10866,13676 12273,12075 12304,11412 12767,11168 13380,11035 13532,10424 13654,9890 13922,9196 13922,9196 L 14251,9540 14326,8716 C 14407,8981 15181,11328 15734,12056 16077,12481 16378,13029 16378,13029 16221,13142 15901,13329 15824,13508 15781,13609 15494,13568 15494,13568 L 15075,13494 Z"/>
       </g>
      </g>
      <g class="com.sun.star.drawing.OpenBezierShape">
       <g id="id53">
        <rect class="BoundingBox" stroke="none" fill="none" x="11428" y="10180" width="3675" height="3673"/>
        <path fill="none" stroke="rgb(0,0,0)" stroke-width="53" stroke-linejoin="miter" d="M 15075,13494 C 15074,13222 14167,10528 14161,10184 14140,10341 13900,11035 13787,11113 13687,11195 12780,11835 12679,12131 12567,12422 11580,13622 11451,13838"/>
       </g>
      </g>
      <g class="com.sun.star.drawing.ClosedBezierShape">
       <g id="id54">
        <rect class="BoundingBox" stroke="none" fill="none" x="2540" y="14695" width="15171" height="3192"/>
        <path fill="rgb(208,195,167)" stroke="none" d="M 17425,16203 C 17425,16203 11072,16075 10536,15919 10064,16186 8096,16533 7077,16682 6190,16822 4684,17022 4308,17042 3937,17076 3644,17196 3424,17431 3069,17805 2904,17942 2556,17865 2420,17833 3217,17422 3214,17072 3257,16982 3604,16662 3873,16682 4137,16716 7017,16209 7496,16158 7978,16102 9685,15355 9847,15245 10005,15142 11045,15275 11420,15305 11792,15328 13633,14395 14280,14795 14913,15195 17554,15542 17710,15544 L 17425,16203 Z"/>
       </g>
      </g>
      <g class="com.sun.star.drawing.ClosedBezierShape">
       <g id="id55">
        <rect class="BoundingBox" stroke="none" fill="none" x="20749" y="14391" width="3685" height="1897"/>
        <path fill="rgb(64,64,64)" stroke="none" d="M 24433,14391 C 24425,14401 24417,14411 24409,14421 24422,14410 24430,14400 24433,14391 Z M 23430,15499 C 23063,15800 22112,16255 21753,16278 21382,16307 21409,16254 20794,16233 L 20749,15649 C 20912,15611 24089,14686 24409,14421 23953,14966 23560,15409 23430,15499 Z"/>
       </g>
      </g>
      <g class="com.sun.star.drawing.ClosedBezierShape">
       <g id="id56">
        <rect class="BoundingBox" stroke="none" fill="none" x="18443" y="11327" width="7819" height="4099"/>
        <path fill="rgb(208,195,167)" stroke="none" d="M 20719,15424 L 20630,14241 19477,13732 18548,13972 18443,13208 19027,13103 20899,13253 22412,12864 C 22412,12864 23245,11791 23385,11531 23512,11257 24152,11310 24343,11396 24514,11466 26260,11920 26260,11920 26101,12220 25260,13291 24493,14196 23920,14299 20719,15424 20719,15424 Z"/>
       </g>
      </g>
      <g class="com.sun.star.drawing.OpenBezierShape">
       <g id="id57">
        <rect class="BoundingBox" stroke="none" fill="none" x="20836" y="15444" width="2672" height="878"/>
        <path fill="none" stroke="rgb(0,0,0)" stroke-width="101" stroke-linejoin="miter" d="M 20839,16203 C 21448,16235 21421,16289 21798,16263 22152,16237 23102,15782 23475,15484"/>
       </g>
      </g>
      <g class="com.sun.star.drawing.OpenBezierShape">
       <g id="id58">
        <rect class="BoundingBox" stroke="none" fill="none" x="2545" y="15864" width="14884" height="2074"/>
        <path fill="none" stroke="rgb(0,0,0)" stroke-width="101" stroke-linejoin="miter" d="M 17426,16203 C 17426,16203 11073,16075 10537,15919 10065,16186 8097,16533 7078,16682 6191,16822 4684,17022 4308,17042 3937,17076 3644,17196 3424,17431 3069,17805 2904,17942 2556,17865"/>
       </g>
      </g>
      <g class="com.sun.star.drawing.OpenBezierShape">
       <g id="id59">
        <rect class="BoundingBox" stroke="none" fill="none" x="16365" y="14502" width="7942" height="5067"/>
        <path fill="none" stroke="rgb(0,0,0)" stroke-width="101" stroke-linejoin="miter" d="M 24299,14556 C 24299,14556 24082,14528 23849,14631 23602,14742 23149,15435 22457,15709 22108,15835 21575,15782 21169,15993 20774,16209 20534,16369 20315,16398 20108,16422 19041,17057 18773,17296 18454,17596 16987,18022 16422,18210 16453,18396 16553,19129 16556,19243 16569,19378 17094,19543 16856,19513"/>
       </g>
      </g>
      <g class="com.sun.star.drawing.ClosedBezierShape">
       <g id="id60">
        <rect class="BoundingBox" stroke="none" fill="none" x="16184" y="11830" width="9823" height="7688"/>
        <path fill="rgb(217,217,217)" stroke="none" d="M 25676,12923 C 25339,13338 24949,13835 24329,14556 24329,14556 24115,14528 23879,14631 23635,14742 23182,15435 22487,15709 22142,15835 21608,15782 21214,15993 20807,16209 20568,16369 20360,16398 20141,16422 19075,17057 18803,17296 18487,17596 17020,18022 16467,18210 16487,18396 16587,19129 16586,19243 16602,19378 17127,19543 16886,19513 16647,19490 16193,19463 16197,18928 16193,18396 16088,17862 16541,17910 16993,17969 18567,17249 18833,17012 19101,16769 19874,16049 19926,15918 20221,15969 20995,15889 21154,15649 21315,15408 22462,15115 22726,14900 22995,14688 23449,14101 23505,14002 23555,13888 25387,13360 25691,12894 26047,12359 26110,12057 25811,11860 25786,11841 25773,11834 25781,11830 26055,11987 26139,12238 25676,12923 Z"/>
       </g>
      </g>
      <g class="com.sun.star.drawing.OpenBezierShape">
       <g id="id61">
        <rect class="BoundingBox" stroke="none" fill="none" x="16428" y="14517" width="7907" height="5037"/>
        <path fill="none" stroke="rgb(0,0,0)" stroke-width="71" stroke-linejoin="miter" d="M 24329,14556 C 24329,14556 24115,14528 23879,14631 23635,14742 23182,15435 22487,15709 22142,15835 21608,15782 21214,15993 20807,16209 20568,16369 20360,16398 20141,16422 19075,17057 18803,17296 18487,17596 17020,18022 16467,18210 16487,18396 16587,19129 16586,19243 16602,19378 17127,19543 16886,19513"/>
       </g>
      </g>
      <g class="com.sun.star.drawing.PolyPolygonShape">
       <g id="id62">
        <rect class="BoundingBox" stroke="none" fill="none" x="21747" y="8695" width="1196" height="2925"/>
        <path fill="none" stroke="rgb(0,0,0)" stroke-width="101" stroke-linejoin="miter" d="M 22891,11442 L 22891,8746 21798,8746 21798,11562 22891,11442 Z"/>
       </g>
      </g>
      <g class="com.sun.star.drawing.ClosedBezierShape">
       <g id="id63">
        <rect class="BoundingBox" stroke="none" fill="none" x="25107" y="10438" width="2193" height="2173"/>
        <path fill="rgb(185,171,140)" stroke="none" d="M 25886,12609 C 26030,12405 26272,12038 26370,11860 26488,11649 26730,11378 26816,11280 26917,11170 27287,10755 27299,10737 L 27239,10438 25302,11591 25107,11681 C 25423,11714 25543,11767 25751,11830 26089,11921 26049,12314 25886,12609 Z"/>
       </g>
      </g>
      <g class="com.sun.star.drawing.ClosedBezierShape">
       <g id="id64">
        <rect class="BoundingBox" stroke="none" fill="none" x="15373" y="11676" width="10627" height="8626"/>
        <path fill="rgb(240,226,197)" stroke="none" d="M 25767,11830 C 24950,11474 23343,11621 22922,13493 22436,13595 20115,14768 19478,15275 18808,15435 17265,16533 16617,17057 16248,17369 16088,17329 15869,17461 15661,17596 15394,18636 15374,19138 15581,19516 15979,20037 16123,20097 16263,20151 16479,20169 16542,20171 16629,20166 16541,20187 16872,20276 17225,20378 17407,20126 17037,20007 16928,19978 16747,19887 16737,19857 16659,19775 16620,19738 16601,19723 16726,19732 16710,19773 16962,19872 17235,19983 17383,19752 17082,19572 16781,19396 16594,19343 16572,19243 16541,19129 16434,18289 16438,18210 16994,18022 18462,17596 18789,17296 19049,17057 20115,16422 20331,16398 20542,16369 20782,16209 21185,15993 21582,15782 22116,15835 22458,15709 23156,15435 23610,14742 23850,14631 24090,14528 24300,14556 24300,14556 24300,14556 25599,13031 25707,12879 25730,12834 26311,12071 25767,11830 Z"/>
       </g>
      </g>
      <g class="com.sun.star.drawing.ClosedBezierShape">
       <g id="id65">
        <rect class="BoundingBox" stroke="none" fill="none" x="15338" y="11640" width="10698" height="8697"/>
        <path fill="none" stroke="rgb(0,0,0)" stroke-width="71" stroke-linejoin="miter" d="M 25767,11830 C 24950,11474 23343,11621 22922,13493 22436,13595 20115,14768 19478,15275 18808,15435 17265,16533 16617,17057 16248,17369 16088,17329 15869,17461 15661,17596 15394,18636 15374,19138 15581,19516 15979,20037 16123,20097 16263,20151 16479,20169 16542,20171 16629,20166 16541,20187 16872,20276 17225,20378 17407,20126 17037,20007 16928,19978 16747,19887 16737,19857 16549,19661 16587,19722 16587,19722 16728,19730 16701,19770 16962,19872 17235,19983 17383,19752 17082,19572 16781,19396 16594,19343 16572,19243 16541,19129 16434,18289 16438,18210 16994,18022 18462,17596 18789,17296 19049,17057 20115,16422 20331,16398 20542,16369 20782,16209 21185,15993 21582,15782 22116,15835 22458,15709 23156,15435 23610,14742 23850,14631 24090,14528 24300,14556 24300,14556 24300,14556 25599,13031 25707,12879 25730,12834 26311,12071 25767,11830 Z"/>
       </g>
      </g>
      <g class="com.sun.star.drawing.PolyPolygonShape">
       <g id="id66">
        <rect class="BoundingBox" stroke="none" fill="none" x="22337" y="10049" width="690" height="421"/>
        <path fill="rgb(240,226,197)" stroke="none" d="M 22966,10049 L 23026,10364 22546,10469 22337,10349 22502,10124 22966,10049 Z"/>
       </g>
      </g>
      <g class="com.sun.star.drawing.PolyPolygonShape">
       <g id="id67">
        <rect class="BoundingBox" stroke="none" fill="none" x="22284" y="10008" width="785" height="500"/>
        <path fill="none" stroke="rgb(0,0,0)" stroke-width="71" stroke-linejoin="miter" d="M 22966,10049 L 23026,10364 22546,10469 22337,10349 22502,10124 22966,10049 Z"/>
       </g>
      </g>
      <g class="com.sun.star.drawing.PolyPolygonShape">
       <g id="id68">
        <rect class="BoundingBox" stroke="none" fill="none" x="21422" y="9450" width="751" height="750"/>
        <path fill="rgb(240,226,197)" stroke="none" d="M 21423,9765 L 21648,9450 21992,9450 22172,9615 21902,9735 21738,9944 21768,10094 21498,10199 21423,9765 Z"/>
       </g>
      </g>
      <g class="com.sun.star.drawing.PolyPolygonShape">
       <g id="id69">
        <rect class="BoundingBox" stroke="none" fill="none" x="21385" y="9414" width="852" height="835"/>
        <path fill="none" stroke="rgb(0,0,0)" stroke-width="71" stroke-linejoin="miter" d="M 21423,9765 L 21648,9450 21992,9450 22172,9615 21902,9735 21738,9944 21768,10094 21498,10199 21423,9765 Z"/>
       </g>
      </g>
      <g class="com.sun.star.drawing.OpenBezierShape">
       <g id="id70">
        <rect class="BoundingBox" stroke="none" fill="none" x="16156" y="19383" width="437" height="376"/>
        <path fill="none" stroke="rgb(0,0,0)" stroke-width="71" stroke-linejoin="miter" d="M 16182,19408 C 16182,19408 16460,19703 16586,19722"/>
       </g>
      </g>
      <g class="com.sun.star.drawing.OpenBezierShape">
       <g id="id71">
        <rect class="BoundingBox" stroke="none" fill="none" x="15897" y="19522" width="721" height="702"/>
        <path fill="none" stroke="rgb(0,0,0)" stroke-width="71" stroke-linejoin="miter" d="M 15927,19542 C 15993,19643 16763,20296 16541,20171"/>
       </g>
      </g>
      <g class="com.sun.star.drawing.ClosedBezierShape">
       <g id="id72">
        <rect class="BoundingBox" stroke="none" fill="none" x="15582" y="12774" width="3208" height="3471"/>
        <path fill="rgb(0,0,0)" stroke="none" d="M 17426,16203 C 17426,16203 17857,15471 17875,15275 17893,15079 17431,13953 17261,13837 17091,13721 16003,13642 16003,13642 L 15601,13597 C 15468,13024 16074,12745 16509,12777 17260,12816 17232,13086 17470,13068 17708,13050 18070,12953 18414,12879 18537,14267 18789,15579 18789,15579 L 17708,16243 17426,16203 Z"/>
       </g>
      </g>
      <g class="com.sun.star.drawing.OpenBezierShape">
       <g id="id73">
        <rect class="BoundingBox" stroke="none" fill="none" x="27286" y="9213" width="645" height="541"/>
        <path fill="none" stroke="rgb(59,59,59)" stroke-width="106" stroke-linejoin="round" stroke-linecap="round" d="M 27877,9377 C 27877,9377 27864,9238 27738,9271 27612,9430 27738,9437 27678,9549 27625,9648 27460,9761 27367,9661 27367,9661 27275,9496 27427,9503"/>
       </g>
      </g>
      <g class="com.sun.star.drawing.ClosedBezierShape">
       <g id="id74">
        <rect class="BoundingBox" stroke="none" fill="none" x="21660" y="265" width="4764" height="4764"/>
        <path fill="rgb(128,0,128)" stroke="none" d="M 24041,5027 C 25361,5030 26427,3964 26422,2646 26427,1332 25361,266 24041,265 22729,266 21662,1332 21660,2646 21662,3964 22729,5030 24041,5027 Z"/>
       </g>
      </g>
      <g class="com.sun.star.drawing.ClosedBezierShape">
       <g id="id75">
        <rect class="BoundingBox" stroke="none" fill="none" x="22010" y="616" width="4063" height="4062"/>
        <path fill="rgb(42,96,153)" stroke="none" d="M 24041,4676 C 25166,4678 26075,3770 26071,2646 26075,1526 25166,617 24041,616 22922,617 22013,1526 22011,2646 22013,3770 22922,4678 24041,4676 Z"/>
       </g>
      </g>
      <g class="com.sun.star.drawing.ClosedBezierShape">
       <g id="id76">
        <rect class="BoundingBox" stroke="none" fill="none" x="22360" y="966" width="3363" height="3362"/>
        <path fill="rgb(21,132,102)" stroke="none" d="M 24041,4326 C 24972,4328 25724,3576 25721,2646 25724,1719 24972,967 24041,966 23115,967 22362,1719 22361,2646 22362,3576 23115,4328 24041,4326 Z"/>
       </g>
      </g>
      <g class="com.sun.star.drawing.ClosedBezierShape">
       <g id="id77">
        <rect class="BoundingBox" stroke="none" fill="none" x="22711" y="1316" width="2662" height="2662"/>
        <path fill="rgb(255,255,0)" stroke="none" d="M 24041,3976 C 24778,3978 25374,3382 25371,2646 25374,1912 24778,1317 24041,1316 23308,1317 22712,1912 22711,2646 22712,3382 23308,3978 24041,3976 Z"/>
       </g>
      </g>
      <g class="com.sun.star.drawing.ClosedBezierShape">
       <g id="id78">
        <rect class="BoundingBox" stroke="none" fill="none" x="23061" y="1666" width="1962" height="1962"/>
        <path fill="rgb(255,128,0)" stroke="none" d="M 24041,3626 C 24584,3627 25023,3188 25021,2646 25023,2105 24584,1666 24041,1666 23501,1666 23062,2105 23061,2646 23062,3188 23501,3627 24041,3626 Z"/>
       </g>
      </g>
      <g class="com.sun.star.drawing.ClosedBezierShape">
       <g id="id79">
        <rect class="BoundingBox" stroke="none" fill="none" x="23411" y="2016" width="1262" height="1262"/>
        <path fill="rgb(255,0,0)" stroke="none" d="M 24041,3276 C 24390,3277 24672,2995 24671,2646 24672,2298 24390,2016 24041,2016 23694,2016 23412,2298 23411,2646 23412,2995 23694,3277 24041,3276 Z"/>
       </g>
      </g>
     </g>
    </g>
   </g>
  </g>
 </g>
</svg>